<svg xmlns="http://www.w3.org/2000/svg" id="Layer_2" viewBox="0 0 193.85 56.01"><defs><style>.cls-1{fill:#3d4f5d;}.cls-2{fill:#f66;}</style></defs><g id="Layer_1-2"><g><path class="cls-2" d="M31.1,26.82c-.02-2.64-.01-5.32-.2-8.19-.11-1.45-.23-2.91-.61-4.66-.11-.45-.22-.9-.4-1.41-.16-.5-.39-1.07-.75-1.71-.35-.62-.88-1.41-1.84-2.16-.48-.37-1.07-.7-1.73-.92-.64-.22-1.34-.32-1.96-.31-1.24,.02-2.2,.38-2.85,.7-.37,.17-.61,.33-.91,.52-.25,.17-.48,.34-.71,.51-.84,.67-1.42,1.31-1.97,1.94-1.06,1.25-1.89,2.45-2.67,3.65-1.54,2.4-2.83,4.79-4.07,7.2-2.46,4.8-4.64,9.64-6.75,14.5-.43,.99-.83,1.98-1.25,2.97C.68,35.51-.21,31.11,.04,26.46,.81,12.23,12.4,.72,26.63,.03c7.47-.36,14.33,2.22,19.54,6.66-1.91,4.16-3.86,8.28-5.89,12.33-2.3,4.58-3.32,6.83-5.92,10.98-.24,.38-.73,1.16-1.26,2s-1.9,.5-1.91-.53l-.09-4.67Zm11.9,12.3c-1.69,2.28-3.38,4.53-5.8,6.86-.31,.29-.61,.58-.98,.88l-.53,.44c-.19,.15-.41,.31-.62,.46-.83,.59-1.85,1.27-3.52,1.78l-.65,.17-.33,.07c-.13,.02-.29,.04-.43,.05-.29,.03-.59,.05-.88,.05-.27,0-.51,.01-.83-.03-.65-.09-1.29-.21-1.9-.44-.63-.24-1.19-.55-1.71-.91-1-.72-1.63-1.52-2.1-2.22-.46-.72-.72-1.32-.95-1.9-.42-1.13-.61-2.06-.76-2.94-.14-.87-.22-1.67-.27-2.45-.1-1.54-.1-2.98-.08-4.38,.06-2.8,.24-5.47,.4-8.08,.09-1.5,.18-2.98,.25-4.42,.03-.71-.9-1.02-1.3-.43-.9,1.34-1.77,2.74-2.63,4.15-2.63,4.38-5.07,8.97-7.46,13.59-1.13,2.2-2.24,4.41-3.33,6.64,5.6,6.64,14.24,10.64,23.78,9.86,13.35-1.1,24.16-11.75,25.49-25.07,.38-3.76-.01-7.39-1-10.75-.99,1.76-1.99,3.51-3.02,5.26-2.73,4.63-5.56,9.22-8.84,13.77ZM53.1,5.71c-3.45,0-6.24,2.79-6.24,6.24s2.79,6.24,6.24,6.24c3.45,0,6.24-2.79,6.24-6.24,0-3.45-2.79-6.24-6.24-6.24ZM3.13,41.07c-1.4,0-2.53,1.13-2.53,2.53,0,1.4,1.13,2.53,2.53,2.53s2.53-1.13,2.53-2.53-1.13-2.53-2.53-2.53Z"></path><g><g><path class="cls-1" d="M96.84,14.4l-4.13,19.4h-1.89c-2.34,0-4.07-1.02-5.19-4.64l-2.18-6.91c-.38-1.28-.67-2.59-.77-3.04l-3.11,14.6h-2.21c-1.31,0-2.53-.83-2.53-2.46,0-.26,.03-.51,.1-.8l4-18.82h2.66c3.04,0,4.51,1.54,5.31,4.51l2.43,9,2.88-13.51h2.4c1.15,0,2.27,.8,2.27,2.14,0,.19-.03,.35-.06,.54Z"></path><path class="cls-1" d="M103.95,27.01h-2.69v.13c0,2.37,2.24,2.91,4.13,2.91,2.75,0,4.19-.54,5.47-1.28l-.19,1.22c-.35,2.14-1.54,4.29-7.33,4.29-3.43,0-7.46-2.14-7.46-7.49,0-3.91,2.72-11.08,10.28-11.08,1.95,0,7.01,1.28,7.01,5.76,0,3.65-2.05,5.54-9.22,5.54Zm1.63-7.11c-2.21,0-3.3,1.15-4,3.52h2.75c2.82,0,3.81-.26,3.81-1.82,0-.9-.99-1.7-2.56-1.7Z"></path><path class="cls-1" d="M138.83,22.27c-1.76,3.46-5.09,9.06-7.55,11.78h-1.54c-1.41,0-1.98-.51-2.24-1.15-.67-1.7-1.22-5.03-1.5-8-1.54,3.27-4.03,7.23-5.86,9.16h-1.34c-1.34,0-1.95-.22-2.34-1.15-1.25-3.11-2.11-8.32-2.11-13.51,0-1.09,.03-2.14,.1-3.2h2.72c1.79,0,2.53,1.25,2.53,2.3v1.54c0,2.05,.13,4.16,.58,6.69,2.14-3.46,3.75-6.59,5.09-9.76h2.14c1.41,0,2.53,1.18,2.53,2.5,0,1.66,.35,4.71,.9,7.23,1.66-2.66,3.55-6.56,4.96-10.5h2.79c1.47,0,1.98,.8,1.98,1.63,0,.96-1.38,3.55-1.82,4.45Z"></path><path class="cls-1" d="M154.9,19.87l-.32,1.57c-1.02-.86-2.66-1.5-4.9-1.5-1.12,0-3.27,.13-3.27,1.6,0,.67,.42,.96,3.39,1.76,2.37,.64,4.07,2.18,4.07,4.32,0,2.11-1.09,6.66-8.1,6.66-4.19,0-5.89-1.7-5.89-3.23,0-.32,0-.7,.06-1.06l.35-1.6c.96,.86,2.56,1.66,4.77,1.66h.26c1.28,0,3.14-.06,3.14-1.7,0-.8-.77-1.02-3.36-1.86l-.38-.13c-2.66-.83-3.62-2.21-3.62-4.13,0-2.43,1.6-6.56,8.26-6.56,3.33,0,5.63,1.25,5.63,3.27,0,.26-.03,.64-.1,.93Z"></path><path class="cls-1" d="M168.28,18.24c-.29,1.41-1.98,2.53-3.23,2.53h-2.3l-1.41,6.66c-.03,.19-.06,.42-.06,.61,0,1.06,.51,1.54,1.66,1.54,1.34,0,2.05-.13,2.72-.38l-.48,2.21c-.29,1.34-1.38,2.66-4.42,2.66-2.43,0-4.99-1.31-4.99-4.58,0-.58,.03-1.18,.19-1.89l2.3-10.82c.32-1.54,1.44-2.82,2.75-3.71,.9-.61,2.02-1.15,3.2-1.15h.42l-.93,4.32h4.99l-.42,2.02Z"></path><path class="cls-1" d="M175.22,27.01h-2.69v.13c0,2.37,2.24,2.91,4.13,2.91,2.75,0,4.19-.54,5.47-1.28l-.19,1.22c-.35,2.14-1.54,4.29-7.33,4.29-3.43,0-7.46-2.14-7.46-7.49,0-3.91,2.72-11.08,10.28-11.08,1.95,0,7.01,1.28,7.01,5.76,0,3.65-2.05,5.54-9.22,5.54Zm1.63-7.11c-2.21,0-3.3,1.15-4,3.52h2.75c2.82,0,3.81-.26,3.81-1.82,0-.9-.99-1.7-2.56-1.7Z"></path><path class="cls-1" d="M193.47,31.4c-.38,1.98-2.37,2.66-4.23,2.66-2.59,0-4.58-1.34-4.58-4.29,0-.51,.06-1.09,.19-1.7l3.81-17.96h1.89c1.95,0,2.95,.7,2.95,2.5,0,.45-.06,.99-.19,1.57l-2.75,13c-.06,.26-.06,.48-.06,.7,0,1.18,.83,1.57,2.27,1.57h1.09l-.38,1.95Z"></path></g><g><path class="cls-1" d="M85.69,38.55c-.95,2.32-2.58,5.18-4.18,7.28h-.42c-.24,0-.47-.12-.61-.5-.41-1.08-.62-3.43-.63-4.98-.76,1.76-2,4.13-3.07,5.48h-.41c-.24,0-.52-.12-.66-.5-.09-.24-.17-.51-.24-.76-.4-1.45-.63-3.38-.63-5.25v-.15c0-.61,.04-1.24,.09-1.87h.78c.66,0,.74,.77,.74,1.34,0,.12-.01,.24-.01,.37-.01,.29-.01,.51-.01,.74,.01,1.14,.12,2.44,.35,3.67,1.12-1.87,2.17-4.02,2.89-5.84h.51c.69,0,.94,.32,.94,1.1v.19c0,1.38,.12,2.99,.42,4.55,1.15-1.91,2.18-3.97,2.91-6.12h.89c.32,0,.53,.21,.53,.55,0,.21-.1,.51-.19,.71Z"></path><path class="cls-1" d="M87.88,45.9c-1.13,0-2.78-.71-2.78-2.76,0-2.32,1.46-4.23,3.85-4.23,1,0,2.71,.67,2.71,2.74,0,2.06-1.25,4.25-3.79,4.25Zm.86-5.68c-1.34,0-2.05,1.46-2.05,2.85,0,1.24,.83,1.51,1.38,1.51,1.35,0,2.02-1.5,2.02-2.88,0-1.14-.67-1.49-1.35-1.49Z"></path><path class="cls-1" d="M96.58,39.94l-.14,.57h-.06c-.25-.19-.51-.24-.82-.24-.92,0-1.28,.71-1.46,1.57l-.82,3.89h-.5c-.53,0-.84-.25-.84-.78,0-.11,.01-.24,.04-.36l.66-3.06c.27-1.25,1.08-2.59,2.7-2.59,.68,0,1.26,.22,1.26,.74,0,.07-.01,.17-.02,.25Z"></path><path class="cls-1" d="M99.52,44.93c-.12,.67-.66,.88-1.34,.88-.92,0-1.64-.51-1.64-1.54,0-.27,.01-.47,.06-.68l1.45-6.85h.51c.55,0,.87,.24,.87,.78,0,.12-.01,.26-.05,.41l-1.18,5.53c-.02,.11-.04,.22-.04,.32,0,.61,.48,.69,1.04,.69h.4l-.09,.46Z"></path><path class="cls-1" d="M107.59,37.97l-.9,4.26c-.37,1.78-1.18,3.67-3.72,3.67-.72,0-2.76-.5-2.76-2.95,0-1.46,1.02-4.03,3.51-4.03,.77,0,1.65,.37,1.85,1.3l.74-3.48h.5c.52,0,.84,.21,.84,.78,0,.14-.01,.29-.05,.45Zm-3.82,2.26c-1.46,0-1.97,1.81-1.97,2.6,0,1.65,1.02,1.77,1.44,1.77,1.66,0,1.91-1.95,1.91-2.88,0-1.19-.73-1.5-1.38-1.5Z"></path><path class="cls-1" d="M117.27,41.1c-.72,1.52-2.17,3.8-2.99,4.75h-.38c-.4,0-.57-.14-.68-.38-.37-.82-.61-2.65-.61-3.71v-.15c-.57,1.35-1.72,3.3-2.58,4.24h-.35c-.38,0-.56-.09-.68-.38-.09-.19-.16-.42-.22-.63-.38-1.31-.58-2.89-.58-4.46v-.15c0-.38,.02-.78,.05-1.17h.74c.71,0,.73,.69,.73,1.14v.2c0,1.13,.1,2.24,.33,3.35,.98-1.45,1.71-2.95,2.37-4.45h.6c.32,0,.51,.17,.61,.45,.1,.26,.16,.56,.17,.87,.02,1.04,.15,2.11,.4,3.12,.79-1.17,1.8-3.12,2.31-4.67h.71c.4,0,.61,.2,.61,.5,0,.36-.33,1.1-.55,1.55Z"></path><path class="cls-1" d="M120.56,45.02c-.12,.56-.6,.81-1.15,.81-.98,0-1.59-.5-1.59-1.46,0-.22,.02-.43,.07-.66l.95-4.52h.38c.66,0,.98,.24,.98,.77,0,.12-.01,.27-.05,.43l-.66,3.14c-.02,.12-.04,.27-.04,.38,0,.52,.42,.63,.83,.63h.37l-.11,.48Zm-.61-6.73c-.48,0-.86-.41-.86-.9s.4-.89,.88-.89,.87,.4,.87,.89-.41,.9-.89,.9Z"></path><path class="cls-1" d="M128.76,37.97l-.9,4.26c-.37,1.78-1.18,3.67-3.72,3.67-.72,0-2.76-.5-2.76-2.95,0-1.46,1.02-4.03,3.51-4.03,.77,0,1.65,.37,1.85,1.3l.74-3.48h.5c.52,0,.84,.21,.84,.78,0,.14-.01,.29-.05,.45Zm-3.82,2.26c-1.46,0-1.97,1.81-1.97,2.6,0,1.65,1.02,1.77,1.44,1.77,1.66,0,1.91-1.95,1.91-2.88,0-1.19-.73-1.5-1.38-1.5Z"></path><path class="cls-1" d="M130.95,43.02h-.83v.12c0,1.35,1.04,1.46,1.65,1.46,.88,0,1.51-.19,2.06-.57h.05l-.07,.43c-.16,.9-1.08,1.43-2.55,1.43-.93,0-2.68-.51-2.68-2.85v-.05c.01-.98,.81-4.1,3.83-4.1,.73,0,2.39,.47,2.39,2.08,0,1.41-.93,2.04-3.84,2.04Zm1.24-2.86c-1.19,0-1.74,.97-1.88,1.51l-.06,.24h.79c.57,0,1.05-.04,1.39-.09,.55-.09,.9-.32,.9-.78,0-.67-.58-.88-1.14-.88Z"></path></g></g></g></g></svg>